<svg width="25" height="25" viewBox="0 0 25 25" fill="none" xmlns="http://www.w3.org/2000/svg">
<path d="M0 12.5C0 5.59644 5.59644 0 12.5 0C19.4036 0 25 5.59644 25 12.5C25 19.4036 19.4036 25 12.5 25C5.59644 25 0 19.4036 0 12.5Z" fill="#2787F5"/>
<path d="M13.1539 16.6015C13.1539 16.6015 13.3946 16.5752 13.5178 16.4453C13.6306 16.3262 13.6267 16.1015 13.6267 16.1015C13.6267 16.1015 13.6117 15.0524 14.108 14.8974C14.5971 14.7451 15.2251 15.9121 15.8916 16.3608C16.395 16.7001 16.7772 16.6258 16.7772 16.6258L18.5582 16.6015C18.5582 16.6015 19.4894 16.5451 19.0479 15.8263C19.0114 15.7674 18.7903 15.2943 17.7241 14.3226C16.607 13.3054 16.757 13.4699 18.1017 11.7102C18.9207 10.6386 19.2481 9.98443 19.1457 9.70469C19.0486 9.43711 18.446 9.50817 18.446 9.50817L16.4413 9.52033C16.4413 9.52033 16.2926 9.50049 16.1824 9.56514C16.0748 9.62851 16.0051 9.77638 16.0051 9.77638C16.0051 9.77638 15.6881 10.6054 15.2649 11.3108C14.3721 12.7984 14.0154 12.8772 13.8693 12.785C13.5296 12.5693 13.6143 11.9195 13.6143 11.458C13.6143 10.0158 13.8374 9.41471 13.1807 9.25916C12.9629 9.20731 12.8024 9.17338 12.2449 9.16762C11.5295 9.16058 10.9243 9.17018 10.5813 9.33469C10.353 9.44415 10.1769 9.68868 10.2845 9.70277C10.4169 9.72005 10.7169 9.78214 10.876 9.99467C11.0814 10.2693 11.0743 10.8851 11.0743 10.8851C11.0743 10.8851 11.1923 12.5827 10.7984 12.7933C10.5284 12.938 10.158 12.6429 9.36177 11.2929C8.95419 10.6015 8.64638 9.8372 8.64638 9.8372C8.64638 9.8372 8.58703 9.69445 8.48074 9.61763C8.35227 9.52481 8.17293 9.49601 8.17293 9.49601L6.26805 9.50817C6.26805 9.50817 5.98176 9.51585 5.87677 9.63811C5.78351 9.7463 5.86959 9.97098 5.86959 9.97098C5.86959 9.97098 7.36102 13.3963 9.05005 15.1228C10.5989 16.7052 12.357 16.6015 12.357 16.6015H13.1539Z" fill="white"/>
</svg>
