<svg width="92" height="91" viewBox="0 0 92 91" fill="none" xmlns="http://www.w3.org/2000/svg">
<mask id="mask0" mask-type="alpha" maskUnits="userSpaceOnUse" x="0" y="0" width="92" height="91">
<ellipse cx="46" cy="45.5" rx="46" ry="45.5" fill="#0C143B"/>
</mask>
<g mask="url(#mask0)">
<path fill-rule="evenodd" clip-rule="evenodd" d="M127.877 95V-3H-35V95H127.877Z" fill="#224B8C" stroke="black" stroke-width="6.44597" stroke-miterlimit="2.613"/>
<path fill-rule="evenodd" clip-rule="evenodd" d="M46.8279 9.10474L47.725 11.7201H50.4581L48.2802 13.4021L49.0716 16.024L46.8279 14.4596L44.5842 16.024L45.3757 13.4031L43.1968 11.7201H45.9308L46.8279 9.10474ZM46.8279 74.5223L47.725 77.1367H50.4581L48.2802 78.8197L49.0716 81.4406L46.8279 79.8772L44.5842 81.4406L45.3757 78.8197L43.1968 77.1367H45.9308L46.8279 74.5223ZM79.2889 41.4896L80.185 44.105H82.9181L80.7411 45.7861L81.5316 48.4089L79.2889 46.8445L77.0442 48.4089L77.8357 45.787L75.6578 44.105H78.3908L79.2889 41.4896ZM14.1955 41.4896L15.0926 44.105H17.8266L15.6478 45.7861L16.4392 48.4089L14.1955 46.8445L11.9518 48.4089L12.7433 45.787L10.5645 44.105H13.2984L14.1955 41.4896Z" fill="#F2CA30"/>
<path fill-rule="evenodd" clip-rule="evenodd" d="M46.8279 9.10474L47.725 11.7201H50.4581L48.2802 13.4021L49.0716 16.024L46.8279 14.4596L44.5842 16.024L45.3757 13.4031L43.1968 11.7201H45.9308L46.8279 9.10474ZM17.3762 26.3435L18.2733 28.9588H21.0063L18.8275 30.6409L19.6199 33.2627L17.3762 31.6983L15.1325 33.2627L15.9239 30.6409L13.7451 28.9588H16.4782L17.3762 26.3435ZM18.2103 57.5968L19.1074 60.2121H21.8404L19.6625 61.8933L20.454 64.5142L18.2103 62.9507L15.9666 64.5142L16.758 61.8933L14.5792 60.2121H17.3132L18.2103 57.5968ZM29.4047 13.6005L30.3018 16.2158H33.0358L30.8569 17.8979L31.6484 20.5197L29.4047 18.9553L27.161 20.5197L27.9525 17.8979L25.7736 16.2158H28.5067L29.4047 13.6005ZM29.4047 69.6791L30.3018 72.2925H33.0358L30.8569 73.9755L31.6484 76.5974L29.4047 75.033L27.161 76.5974L27.9525 73.9755L25.7736 72.2925H28.5067L29.4047 69.6791ZM76.1175 26.3435L75.2204 28.9588H72.4864L74.6661 30.6409L73.8728 33.2627L76.1175 31.6983L78.3621 33.2627L77.5697 30.6409L79.7485 28.9588H77.0155L76.1175 26.3435ZM76.1175 57.5384L75.2204 60.1538H72.4864L74.6661 61.8358L73.8728 64.4567L76.1175 62.8923L78.3621 64.4586L77.5697 61.8358L79.7485 60.1538H77.0155L76.1175 57.5384ZM64.0899 13.6005L63.1918 16.2158H60.4588L62.6358 17.8979L61.8453 20.5197L64.0899 18.9553L66.3327 20.5197L65.5412 17.8979L67.721 16.2158H64.9879L64.0899 13.6005ZM64.0899 69.1665L63.1918 71.7819H60.4588L62.6358 73.464L61.8453 76.0867L64.0899 74.5205L66.3327 76.0867L65.5412 73.464L67.721 71.7819H64.9879L64.0899 69.1665ZM46.8279 74.5223L47.725 77.1367H50.4581L48.2802 78.8197L49.0716 81.4406L46.8279 79.8772L44.5842 81.4406L45.3757 78.8197L43.1968 77.1367H45.9308L46.8279 74.5223ZM79.2889 41.4896L80.185 44.105H82.9181L80.7411 45.7861L81.5316 48.4089L79.2889 46.8445L77.0442 48.4089L77.8357 45.787L75.6578 44.105H78.3908L79.2889 41.4896ZM14.1955 41.4896L15.0926 44.105H17.8266L15.6478 45.7861L16.4392 48.4089L14.1955 46.8445L11.9518 48.4089L12.7433 45.787L10.5645 44.105H13.2984L14.1955 41.4896Z" fill="#F2CA30"/>
</g>
</svg>
