<svg width="22" height="20" viewBox="0 0 22 20" fill="none" xmlns="http://www.w3.org/2000/svg">
<path d="M16.1178 17.691C16.0777 17.7835 16.0345 17.8728 15.9914 17.9622C15.9513 18.0454 15.8866 18.1625 15.8897 18.1718L15.902 18.1502L15.9267 18.107L15.9945 17.9869C16.0376 17.9067 16.0808 17.8235 16.1239 17.7372C16.2102 17.5677 16.2903 17.3952 16.3705 17.2226C16.5276 16.8713 16.6786 16.5138 16.8204 16.1532C16.9961 15.7063 17.1656 15.2533 17.3289 14.8003C16.9468 15.7526 16.5646 16.6586 16.241 17.4136C16.1948 17.5092 16.1547 17.6016 16.1178 17.691Z" fill="url(#paint0_linear)"/>
<path d="M10.1945 13.9014C10.0898 14.3174 9.98498 14.7304 9.88329 15.1341C9.99731 14.7211 10.099 14.3112 10.1945 13.9014Z" fill="url(#paint1_linear)"/>
<path d="M13.1962 14.1018C13.224 14.1881 13.2486 14.2713 13.2733 14.3545C13.1685 13.9755 13.0637 13.5872 12.962 13.1865C13.0298 13.4485 13.1161 13.8429 13.1962 14.1018Z" fill="url(#paint2_linear)"/>
<path d="M14.1269 15.938C14.2625 16.3695 14.4074 16.7978 14.5645 17.2139C14.6416 17.4204 14.7248 17.6268 14.8142 17.8241C14.8573 17.9227 14.9035 18.0213 14.9528 18.1168L15.0268 18.2586C15.0545 18.311 15.0699 18.3356 15.0915 18.3726C15.1562 18.4774 15.221 18.5791 15.3011 18.6746C15.3812 18.764 15.4767 18.8565 15.6 18.8811C15.6308 18.8842 15.6617 18.8904 15.6925 18.8842C15.7233 18.878 15.751 18.8657 15.7788 18.8503C15.8312 18.8195 15.8805 18.7763 15.9236 18.7332C16.0099 18.6438 16.0839 18.5421 16.1517 18.4404C16.2102 18.3541 16.3088 18.1908 16.3828 18.049C16.4629 17.9042 16.5369 17.7563 16.6047 17.6114C16.7434 17.3187 16.8636 17.0259 16.9622 16.7424L16.9221 16.7239L16.882 16.8502C16.6817 17.2724 16.4968 17.596 16.3058 17.9258C16.315 17.9073 16.3242 17.8857 16.3335 17.8641C16.315 17.898 16.2996 17.9319 16.2811 17.9658C16.2472 18.0213 16.2164 18.0737 16.1825 18.1292C16.1517 18.1785 16.1208 18.2309 16.0869 18.2833C16.0438 18.3511 16.0007 18.4219 15.9483 18.499C15.899 18.5699 15.8466 18.6438 15.7726 18.7024C15.7449 18.7209 15.7171 18.7363 15.6863 18.7424C15.6709 18.7455 15.6555 18.7455 15.6401 18.7455C15.6247 18.7455 15.6093 18.7424 15.5939 18.7394C15.5322 18.724 15.4767 18.687 15.4305 18.6469C15.335 18.5606 15.2641 18.4528 15.1963 18.3418C15.1778 18.3141 15.1655 18.2863 15.147 18.2555C15.1223 18.2124 15.1008 18.1661 15.0792 18.123C15.036 18.0336 14.9929 17.9443 14.9498 17.8518C14.8665 17.6669 14.7895 17.4789 14.7155 17.2878C14.4228 16.5236 14.1762 15.75 13.9358 15.0289C13.6523 14.1321 13.3873 13.3647 13.1068 12.4648C13.1746 12.7237 13.264 13.1213 13.3441 13.3771C13.603 14.203 13.8526 15.0782 14.1269 15.938Z" fill="url(#paint3_linear)"/>
<path d="M13.2764 14.3545C13.5537 15.3407 13.8403 16.2744 14.1824 17.1928C14.2163 17.2668 14.2718 17.3839 14.3211 17.4918C14.1115 16.8908 13.9451 16.3792 13.7756 15.8831C13.6092 15.3869 13.4459 14.9031 13.2764 14.3545Z" fill="url(#paint4_linear)"/>
<path d="M14.3211 17.4912C14.3457 17.559 14.3673 17.6237 14.392 17.6915C14.4043 17.7039 14.4166 17.7193 14.4289 17.7378C14.4228 17.7193 14.4135 17.7039 14.4074 17.6854C14.3858 17.6361 14.3581 17.5652 14.3211 17.4912Z" fill="url(#paint5_linear)"/>
<path d="M15.8743 17.9811L15.8404 18.0458C15.8311 18.0643 15.8157 18.0951 15.8157 18.0951C15.8126 18.1074 15.8096 18.1198 15.8034 18.1321C15.7942 18.1568 15.7849 18.1845 15.7695 18.2091C15.7942 18.1752 15.8126 18.1383 15.8281 18.1044L15.9267 17.9256C15.9606 17.8609 15.9976 17.7931 16.0315 17.7253C16.1671 17.4572 16.2965 17.1737 16.4198 16.8901C16.6663 16.32 16.8913 15.7345 17.107 15.1489C16.8882 15.6821 16.6694 16.1967 16.4598 16.6775C16.2533 17.1552 16.053 17.6051 15.8743 17.9811Z" fill="url(#paint6_linear)"/>
<path d="M9.86171 17.8142C9.74152 18.1409 9.63058 18.4059 9.50731 18.6525C9.4919 18.6833 9.47649 18.7141 9.46108 18.7449L9.43026 18.8004L9.39636 18.8589L9.32548 18.973L9.2885 19.0315L9.24844 19.087C9.14366 19.2349 9.0173 19.3705 8.86629 19.4784C9.02347 19.3798 9.16831 19.2503 9.29466 19.0932C9.00189 19.4753 8.65673 19.7003 8.28384 19.7188C8.10201 19.7249 7.94176 19.6602 7.79383 19.5739C7.6459 19.4845 7.50722 19.3644 7.37779 19.2226C7.25144 19.087 7.10967 18.8928 7.04187 18.7911C6.95867 18.6679 6.87854 18.5384 6.79841 18.3967C6.78609 18.4028 6.68747 18.2981 6.61967 18.1748C6.26218 17.5708 5.99715 16.939 5.74136 16.4521C5.44551 15.8357 5.18047 15.2101 4.94626 14.7201C4.89387 14.5937 4.7521 14.3595 4.63808 14.113C4.50864 13.8079 4.38537 13.4997 4.2621 13.1946C4.2621 13.21 4.26518 13.2254 4.26518 13.2378C4.36072 13.4905 4.46242 13.7432 4.57336 13.9928C4.90311 14.7386 5.2945 15.6077 5.64582 16.3473C5.93551 16.9606 6.23445 17.5553 6.57036 18.1316C6.65665 18.2765 6.74294 18.4182 6.83539 18.56C6.88162 18.6309 6.92785 18.7018 6.97716 18.7726L7.05112 18.8774L7.14665 19.0038C7.45483 19.4013 7.81849 19.7588 8.28075 19.7619C8.40094 19.7527 8.51497 19.7311 8.62591 19.691C8.6783 19.6664 8.73378 19.6448 8.78309 19.614L8.86013 19.5678L8.93101 19.5154C9.119 19.3736 9.27925 19.1794 9.41177 18.9699C9.44567 18.9175 9.47957 18.8651 9.51039 18.8096C9.53812 18.7603 9.55662 18.7264 9.57819 18.6864C9.62133 18.6062 9.65831 18.5261 9.6953 18.4491C9.76618 18.2919 9.83089 18.1316 9.88945 17.9745C10.0374 17.5769 10.1422 17.1732 10.2531 16.7787C10.5674 15.583 10.9218 14.1438 11.0174 13.3364C11.0359 13.2008 11.1006 12.9419 11.1037 12.8032C10.9126 13.8634 10.6137 15.1762 10.25 16.4921C10.1298 16.8866 10.062 17.2934 9.86171 17.8142Z" fill="url(#paint7_linear)"/>
<path d="M8.84164 18.8103C8.87862 18.7333 8.92177 18.6408 8.968 18.536C8.99265 18.4806 9.01731 18.4189 9.04812 18.3573C9.07894 18.2926 9.10668 18.2186 9.1375 18.1447C9.25769 17.8426 9.3902 17.4697 9.51964 17.0537C9.78159 16.2216 10.0435 15.22 10.2778 14.2801C10.5089 13.3401 10.7154 12.4618 10.8479 11.8732C11.0112 11.1521 11.1222 10.7145 10.9588 10.9425C10.891 11.186 10.8263 11.4356 10.7678 11.6852L10.7277 11.8578L10.6969 11.9934C10.6784 12.0828 10.6568 12.1721 10.6383 12.2646C10.5582 12.6252 10.4781 12.9888 10.3979 13.3494C10.2346 14.0705 10.0651 14.7763 9.88637 15.4142C9.74769 15.9289 9.4919 16.9335 9.2207 17.707C9.1529 17.9012 9.08511 18.0799 9.02039 18.234C8.98957 18.3111 8.95875 18.382 8.92793 18.4467C8.90636 18.5021 8.88171 18.5515 8.86322 18.5946C8.82315 18.684 8.79233 18.7518 8.78309 18.7918C8.77076 18.8288 8.78617 18.8411 8.84164 18.8103Z" fill="url(#paint8_linear)"/>
<path d="M1.54088 4.60326C1.8244 5.55245 2.23428 6.69888 2.61642 7.76209C2.34214 6.87762 1.92918 5.72811 1.55629 4.60942C1.54704 4.60326 1.54396 4.60018 1.54088 4.60326Z" fill="url(#paint9_linear)"/>
<path d="M3.55638 11.337C3.55943 11.3431 3.56247 11.3492 3.56552 11.3553C3.56552 11.3492 3.56247 11.3401 3.56247 11.334C3.55943 11.334 3.55943 11.334 3.55638 11.337Z" fill="url(#paint10_linear)"/>
<path d="M1.78434 5.09016C1.74428 4.96689 1.69189 4.8467 1.64566 4.75732C1.69497 4.88676 1.74428 5.02236 1.79359 5.15487C1.7905 5.1333 1.78742 5.11173 1.78434 5.09016Z" fill="url(#paint11_linear)"/>
<path d="M18.8975 12.3818C18.7527 12.8502 18.6017 13.3218 18.4414 13.7994C18.5308 13.5683 18.6202 13.3372 18.7126 13.103L18.4352 13.8611C18.389 13.9813 18.3459 14.1015 18.2996 14.2216C18.0285 15.0167 17.7357 15.8365 17.3905 16.6902C17.6586 16.006 17.9113 15.3003 18.161 14.5853C17.8836 15.2941 17.5908 16.0152 17.2765 16.7241C17.1193 17.0785 16.9591 17.4298 16.7896 17.7719C16.6201 18.1139 16.4444 18.4499 16.2379 18.7611C16.1825 18.8443 16.1208 18.9306 16.0499 19.0138C15.9791 19.097 15.8959 19.1772 15.7942 19.2296C15.6925 19.2881 15.563 19.2727 15.4552 19.2265C15.3473 19.1772 15.2518 19.1001 15.1685 19.0107C15.0853 18.9214 15.0083 18.8228 14.9374 18.7149C14.8665 18.6101 14.7987 18.493 14.7402 18.3851C14.6231 18.1694 14.5214 17.9506 14.4289 17.7349C14.4166 17.7195 14.4043 17.7041 14.3919 17.6887C14.3673 17.6209 14.3426 17.5561 14.3211 17.4883C14.2717 17.3805 14.2163 17.2603 14.1824 17.1894C13.8403 16.271 13.5506 15.3373 13.2763 14.3511C13.2517 14.2679 13.2239 14.1816 13.1993 14.0984C13.1192 13.8395 13.0329 13.445 12.9651 13.1862C13.0668 13.5837 13.1716 13.972 13.2763 14.3542C13.4458 14.9027 13.6092 15.3866 13.7787 15.8827C13.9482 16.3789 14.1146 16.8905 14.3241 17.4914C14.358 17.5654 14.3889 17.6363 14.4104 17.6856C14.4166 17.701 14.4258 17.7195 14.432 17.738C14.5306 17.8766 14.6601 18.1478 14.8357 18.4622C14.9251 18.6194 15.0268 18.7858 15.1501 18.9368C15.2148 19.0107 15.2826 19.0847 15.3627 19.1402C15.4428 19.1957 15.5353 19.2388 15.6308 19.248C15.5969 19.2388 15.5969 19.2326 15.6154 19.2296C15.6339 19.2265 15.6709 19.2296 15.714 19.2172C15.7972 19.1957 15.8774 19.1279 15.8743 19.1124C16.0284 18.9769 16.1362 18.8073 16.2318 18.6471C16.2811 18.567 16.3211 18.4868 16.3643 18.4067C16.4105 18.3204 16.4506 18.2341 16.4937 18.1478C16.6571 17.8027 16.7957 17.4606 16.9159 17.1493C17.3135 16.157 17.7326 15.1678 17.9853 14.2617C18.0531 13.9998 18.2534 13.5036 18.3767 13.1184C18.4229 12.955 18.4722 12.7763 18.5246 12.5945C18.4537 12.7794 18.3829 12.9643 18.3089 13.1492C18.2781 13.2108 18.5493 12.4034 18.7989 11.5898C19.0516 10.7762 19.2889 9.95645 19.2396 10.0119C19.2396 10.0119 19.2334 10.0212 19.2273 10.0427C19.2211 10.0643 19.2088 10.0951 19.1964 10.1321C19.1718 10.2122 19.1348 10.3263 19.0855 10.4711C18.9931 10.7608 18.8605 11.1676 18.7095 11.6329C18.4044 12.5667 18.0007 13.7378 17.6309 14.6993C17.446 15.0568 17.56 14.2987 17.6401 14.0429C17.6463 14.0152 17.6556 13.9813 17.6648 13.9504C17.5539 14.2371 17.4429 14.5206 17.3289 14.801C17.1686 15.254 16.9991 15.7071 16.8204 16.1539C16.6786 16.5145 16.5276 16.872 16.3704 17.2233C16.2903 17.399 16.2102 17.5716 16.1239 17.738C16.0808 17.8212 16.0376 17.9044 15.9945 17.9876L15.9267 18.1078L15.902 18.1509L15.8897 18.1725C15.8897 18.1633 15.9544 18.0461 15.9914 17.9629C16.0345 17.8736 16.0777 17.7842 16.1177 17.6917C16.1547 17.6024 16.1948 17.5099 16.2348 17.4175C16.5554 16.6624 16.9375 15.7564 17.3227 14.8041C17.5076 14.2894 17.6802 13.7748 17.8497 13.2632C17.8528 13.2478 17.8559 13.2355 17.862 13.2231C17.6247 13.8672 17.3689 14.5206 17.1101 15.1493C16.8974 15.7348 16.6694 16.3203 16.4228 16.8905C16.2996 17.1771 16.1701 17.4575 16.0345 17.7256C16.0006 17.7934 15.9667 17.8582 15.9298 17.926L15.8311 18.1047C15.8157 18.1386 15.7942 18.1756 15.7726 18.2095C15.7849 18.1817 15.7972 18.1571 15.8065 18.1324C15.8096 18.1201 15.8157 18.1078 15.8188 18.0955C15.8157 18.0955 15.8311 18.0677 15.8435 18.0461L15.8774 17.9814C16.0561 17.6024 16.2564 17.1555 16.466 16.6748C16.6755 16.194 16.8944 15.6763 17.1132 15.1462C17.52 14.0306 17.8836 12.9088 18.2164 11.8148C17.9607 12.5482 17.6617 13.3803 17.4028 14.0984C17.1471 14.8226 16.8882 15.5283 16.6139 16.2063C16.4783 16.5453 16.3365 16.8781 16.1917 17.1987C16.1177 17.3589 16.0438 17.5161 15.9667 17.6702C15.9298 17.7472 15.8897 17.8212 15.8496 17.8951L15.7911 18.003L15.7633 18.0523L15.7603 18.0616C15.751 18.0862 15.7387 18.1139 15.7202 18.1386C15.7048 18.1633 15.6801 18.1972 15.6493 18.2002C15.6185 18.2033 15.5908 18.1848 15.5661 18.1663C15.5414 18.1448 15.5199 18.1201 15.4983 18.0893L15.4921 18.08L15.4891 18.077C15.4891 18.077 15.4891 18.077 15.486 18.0708L15.4706 18.0461L15.4151 17.9414C15.3781 17.8705 15.3442 17.7965 15.3103 17.7226C15.2425 17.5746 15.1747 17.4175 15.11 17.2603C14.9836 16.9429 14.8665 16.6131 14.7525 16.2803C14.62 15.9629 14.4998 15.6424 14.3981 15.3095C14.1577 14.5483 13.9297 13.6361 13.7109 12.8564C13.717 12.9951 13.6153 12.6006 13.5999 12.6037C13.5352 12.4096 13.4705 12.2092 13.4088 11.9997C13.3719 11.8795 13.338 11.7593 13.301 11.636C13.2548 11.4727 13.2055 11.3124 13.1531 11.1491C13.0514 10.8255 12.9404 10.4988 12.8079 10.2246C12.6754 9.95028 12.5305 9.74689 12.3734 9.5928C12.3271 9.54965 12.3056 9.525 12.2809 9.50034C12.2686 9.48802 12.2563 9.47569 12.2408 9.46028C12.2224 9.44795 12.2039 9.43254 12.1731 9.41405C12.1392 9.40173 12.0991 9.3894 12.0559 9.38015C12.0344 9.37399 12.0097 9.37091 11.9851 9.37091C11.9727 9.36783 11.9604 9.37091 11.9481 9.37399C11.9358 9.37707 11.9234 9.38015 11.9111 9.38324C11.8156 9.41405 11.7478 9.46028 11.683 9.51575C11.5598 9.62978 11.455 9.77154 11.3533 9.95028C11.1468 10.2985 10.9773 10.8378 10.8325 11.3833C10.7955 11.5189 10.7616 11.6576 10.7246 11.7963C10.7 11.898 10.6753 11.9966 10.6476 12.0983C10.5983 12.2955 10.5489 12.4958 10.4996 12.6992C10.401 13.0999 10.2993 13.5067 10.1976 13.9073C10.1021 14.3172 10.0004 14.7271 9.88636 15.14C9.98806 14.7363 10.0928 14.3233 10.1976 13.9073C10.3086 13.442 10.4103 12.9797 10.512 12.5174C10.5644 12.2863 10.6167 12.0551 10.6661 11.824L10.7246 11.5806L10.7893 11.3278C10.8325 11.1583 10.8787 10.9888 10.928 10.8255C10.8664 11.0258 10.8078 11.2323 10.7554 11.4357C10.7277 11.5374 10.703 11.6422 10.6753 11.7439L10.6198 11.9719C10.5551 12.2493 10.4904 12.5267 10.4288 12.8009C10.3024 13.3495 10.1822 13.8919 10.0528 14.4312C9.92334 14.9705 9.79083 15.5037 9.6429 16.0337C9.49498 16.5638 9.33472 17.0877 9.13441 17.5962C9.07277 17.7503 9.01113 17.9013 8.94334 18.0431C8.90944 18.1139 8.87554 18.1879 8.83855 18.2557C8.82006 18.2896 8.80157 18.3235 8.78308 18.3574L8.76151 18.3944C8.75535 18.4036 8.74918 18.416 8.74302 18.4283C8.69063 18.5146 8.63207 18.6009 8.55811 18.6718C8.52113 18.7087 8.48107 18.7396 8.43484 18.7673C8.38861 18.7919 8.3393 18.8074 8.28691 18.8104C8.23144 18.8135 8.17905 18.7889 8.13282 18.7611C8.0866 18.7303 8.04345 18.6964 8.00339 18.6563C7.96333 18.6194 7.92634 18.5762 7.88936 18.5331L7.83697 18.4684L7.81232 18.4345L7.77534 18.3851C7.58118 18.117 7.40244 17.8273 7.23294 17.5315C6.89395 16.9398 6.58577 16.3296 6.28991 15.7102C5.93859 14.9705 5.62733 14.2093 5.33456 13.445C5.36846 13.5067 5.40236 13.5652 5.43626 13.6238C5.06953 12.6715 4.7182 11.7531 4.34531 10.7824C4.31141 10.693 4.27751 10.6067 4.24361 10.5173C3.47316 8.51109 2.86913 6.7668 2.20654 4.68042C2.04321 4.16885 1.87063 3.66035 1.71654 3.14569C1.5871 2.76355 1.69805 3.4323 1.49157 2.79129C1.49773 2.82827 1.5039 2.86217 1.50698 2.89298C1.67031 3.37991 1.83057 3.80211 1.84289 3.94696C1.83981 4.14419 1.52239 3.22274 1.28817 2.64644C1.27276 2.63411 1.25427 2.61254 1.23578 2.58172C1.23578 2.58172 1.21113 2.49852 1.18031 2.39682C1.17106 2.37524 1.16182 2.35984 1.15257 2.34134C1.14024 2.36908 1.11251 2.34751 1.08169 2.31053C1.14949 2.53858 1.21421 2.76355 1.28201 2.9916C1.17414 2.79437 1.08477 2.58789 0.958419 2.23965C0.958419 2.23965 0.958419 2.23965 0.958419 2.24273C0.955337 2.23348 0.952255 2.22732 0.952255 2.21807C0.927601 2.14719 0.902947 2.07323 0.872129 1.99002C1.20188 3.52783 0.730367 2.12562 0.422188 1.59863C0.453006 1.73423 0.499232 1.89757 0.554704 2.07631C0.542377 2.07939 0.514641 2.08864 0.514641 2.08864C0.82282 3.27205 1.00773 4.06407 1.2666 5.11804C1.3344 5.37999 1.27893 5.39848 1.40528 5.7837C1.73811 6.81302 2.06786 7.84542 2.4346 8.8655C2.83523 9.95029 3.23278 11.0043 3.63649 12.0459C4.04329 13.0875 4.45625 14.1169 4.89695 15.1493C4.89386 15.1339 4.89386 15.1277 4.89695 15.1277C5.10959 15.6269 5.3284 16.1262 5.56261 16.6316C5.79375 17.1309 6.01255 17.4883 6.27759 17.9845C6.45941 18.3204 6.65048 18.6563 6.88162 18.9923L6.92476 19.057L6.95866 19.1032L6.99564 19.1525C7.04495 19.2172 7.09426 19.2819 7.14665 19.3436C7.25143 19.4669 7.36238 19.584 7.48257 19.6795C7.71987 19.8736 7.9849 19.9969 8.27767 20C8.35163 19.9938 8.4256 19.9877 8.49956 19.9754C8.53654 19.9723 8.57044 19.9599 8.60742 19.9507C8.6444 19.9414 8.6783 19.9322 8.7122 19.9168C8.85088 19.8675 8.98032 19.7874 9.10051 19.7011C9.34397 19.5131 9.54428 19.2573 9.71378 18.9768L9.76309 18.8906C9.77542 18.8659 9.78775 18.8443 9.80007 18.8228C9.82473 18.7765 9.84938 18.7303 9.87404 18.6841C9.92026 18.5916 9.96341 18.5023 10.0035 18.4129C10.0836 18.2311 10.1576 18.0523 10.2254 17.8766C10.4904 17.1648 10.6876 16.4683 10.8725 15.7718C11.0544 15.0753 11.2177 14.3819 11.3779 13.6947C11.4581 13.3526 11.5382 13.0074 11.6183 12.6653L11.7416 12.1538L11.757 12.0921L11.7601 12.0767L11.7663 12.0428L11.7817 11.975C11.7786 11.8856 11.7878 11.7716 11.8125 11.6422C11.7878 11.71 11.7663 11.7747 11.7385 11.8456C11.7416 11.7285 11.7601 11.5836 11.7971 11.4203C11.8186 11.3402 11.8402 11.2508 11.8834 11.1676C11.9049 11.1275 11.9327 11.0844 11.9758 11.0751C12.0159 11.069 12.0467 11.0936 12.0714 11.1152C12.17 11.2169 12.2347 11.3679 12.3025 11.5374C12.3364 11.6206 12.3703 11.71 12.4011 11.8024L12.4504 11.9442L12.4751 12.0182L12.5151 12.1507C12.7247 12.8533 12.9188 13.5683 13.1099 14.234C13.2979 14.8996 13.4828 15.516 13.6616 16.0276C13.8619 16.61 14.0684 17.211 14.3241 17.815C14.3889 17.966 14.4567 18.117 14.5306 18.268C14.5676 18.342 14.6077 18.419 14.6446 18.493L14.7155 18.6224L14.7926 18.7488C14.8974 18.9152 15.0145 19.0693 15.1562 19.1957C15.2271 19.2573 15.3011 19.3158 15.3874 19.3528C15.4706 19.3929 15.563 19.4175 15.6586 19.4175C15.7541 19.4145 15.8435 19.3744 15.9205 19.322C15.9976 19.2696 16.0715 19.208 16.1362 19.1371C16.2687 18.9984 16.3859 18.8351 16.4906 18.6687C16.5153 18.6286 16.5461 18.5824 16.5677 18.5423L16.6324 18.4283C16.6755 18.3512 16.7187 18.2773 16.7588 18.2002C16.842 18.0461 16.919 17.8921 16.9961 17.7349C17.3011 17.1093 17.5754 16.4621 17.8405 15.8057C18.3181 14.4928 18.765 13.1276 19.2088 11.7316C18.8205 13.0105 18.3952 14.3141 17.8744 15.7194C18.4352 14.3203 18.9592 12.8811 19.4615 11.4326C19.9854 9.79311 20.5031 8.22756 20.9993 6.55107C21.1072 6.15968 21.2243 5.77446 21.2767 5.50942C21.2982 5.31527 21.3167 5.12112 21.3321 4.94854C21.1811 5.46012 21.0332 5.9871 20.9099 6.44013C20.9223 6.38157 20.9099 6.38465 20.9007 6.38157C20.685 7.08114 20.5494 7.58963 20.3182 8.31385C20.5771 7.26605 20.9716 6.01176 21.3445 4.74822C21.3475 4.67734 21.3475 4.61262 21.3475 4.55715C20.5432 7.1551 19.7296 9.81777 18.8975 12.3818ZM13.9297 15.0198C14.1701 15.741 14.4166 16.5145 14.7094 17.2788C14.7833 17.4699 14.8604 17.6578 14.9436 17.8427C14.9836 17.9352 15.0268 18.0277 15.073 18.1139C15.0946 18.1571 15.1162 18.2033 15.1408 18.2465C15.1593 18.2773 15.1716 18.3019 15.1901 18.3328C15.2579 18.4437 15.3288 18.5516 15.4243 18.6379C15.4706 18.681 15.526 18.7149 15.5877 18.7303C15.6031 18.7334 15.6185 18.7365 15.6339 18.7365C15.6493 18.7396 15.6647 18.7365 15.6801 18.7334C15.7109 18.7272 15.7418 18.7118 15.7664 18.6933C15.8404 18.6379 15.8959 18.5608 15.9421 18.4899C15.9945 18.4129 16.0407 18.342 16.0808 18.2742C16.1116 18.2218 16.1455 18.1694 16.1763 18.1201C16.2102 18.0646 16.241 18.0092 16.2749 17.9568C16.2934 17.9229 16.3119 17.889 16.3273 17.8551C16.3181 17.8736 16.3088 17.8951 16.2996 17.9167C16.4937 17.587 16.6755 17.2603 16.8759 16.8412L16.9159 16.7148L16.956 16.7333C16.8574 17.0168 16.7372 17.3096 16.5985 17.6024C16.5307 17.7503 16.4567 17.8951 16.3766 18.04C16.2996 18.1787 16.204 18.3451 16.1455 18.4314C16.0777 18.5362 16.0037 18.6348 15.9174 18.7241C15.8743 18.7673 15.8281 18.8104 15.7726 18.8412C15.7448 18.8567 15.7171 18.869 15.6863 18.8751C15.6555 18.8813 15.6247 18.8782 15.5938 18.8721C15.4706 18.8443 15.375 18.755 15.2949 18.6656C15.2148 18.5731 15.147 18.4714 15.0853 18.3636C15.0638 18.3266 15.0484 18.3019 15.0206 18.2495L14.9467 18.1078C14.9004 18.0122 14.8542 17.9167 14.808 17.815C14.7186 17.6178 14.6354 17.4113 14.5584 17.2048C14.4012 16.7888 14.2594 16.3604 14.1207 15.929C13.8465 15.0661 13.5968 14.1939 13.3318 13.3587C13.2517 13.0999 13.1623 12.7054 13.0945 12.4465C13.3811 13.3587 13.6431 14.1261 13.9297 15.0198ZM1.78434 5.0903C1.78742 5.11187 1.7905 5.13345 1.79358 5.15502C1.74428 5.0225 1.69497 4.8869 1.64566 4.75747C1.69497 4.84684 1.74428 4.96703 1.78434 5.0903ZM1.54088 4.60338C1.54396 4.60338 1.55012 4.60646 1.5532 4.60954C1.92918 5.72823 2.34214 6.87466 2.61334 7.76221C2.23428 6.69591 1.8244 5.54949 1.54088 4.60338ZM3.55637 11.3371C3.55945 11.3371 3.55945 11.334 3.56253 11.334C3.56253 11.3402 3.56561 11.3494 3.56561 11.3556C3.56253 11.3494 3.55945 11.3433 3.55637 11.3371ZM8.78 18.7889C8.78925 18.7488 8.82006 18.681 8.86013 18.5916C8.8817 18.5454 8.90327 18.4992 8.92484 18.4437C8.95258 18.379 8.9834 18.3081 9.0173 18.2311C9.08202 18.077 9.14982 17.8982 9.21761 17.7041C9.48881 16.9305 9.7446 15.929 9.88328 15.4112C10.062 14.7702 10.2315 14.0645 10.3949 13.3464C10.475 12.9858 10.5551 12.6222 10.6352 12.2616C10.6568 12.1723 10.6753 12.0798 10.6938 11.9904L10.7246 11.8548L10.7647 11.6823C10.8232 11.4326 10.8879 11.183 10.9557 10.9395C11.1191 10.7146 11.0081 11.1491 10.8448 11.8702C10.7123 12.4589 10.5058 13.3341 10.2747 14.2771C10.0405 15.2171 9.7785 16.2217 9.51655 17.0507C9.38711 17.4668 9.2546 17.8397 9.13441 18.1417C9.10359 18.2156 9.07585 18.2896 9.04503 18.3543C9.0173 18.419 8.98956 18.4776 8.96491 18.5331C8.91868 18.6379 8.87554 18.7303 8.83855 18.8074C8.78616 18.8413 8.77075 18.8289 8.78 18.7889ZM11.0143 13.3403C10.9188 14.1477 10.5644 15.5869 10.25 16.7826C10.1391 17.1802 10.0343 17.5808 9.88636 17.9783C9.82781 18.1355 9.76309 18.2927 9.69221 18.4529C9.65523 18.5331 9.61825 18.6101 9.5751 18.6902C9.55353 18.7303 9.53504 18.7673 9.5073 18.8135C9.47648 18.869 9.44567 18.9214 9.40869 18.9738C9.27617 19.1833 9.11592 19.3744 8.92793 19.5192L8.85704 19.5716L8.78 19.6179C8.73069 19.6518 8.67522 19.6702 8.62283 19.6949C8.51189 19.735 8.39786 19.7565 8.27767 19.7658C7.8154 19.7596 7.45175 19.4052 7.14357 19.0077L7.04804 18.8813L6.97407 18.7765C6.92476 18.7057 6.87545 18.6348 6.83231 18.5639C6.73986 18.4221 6.65048 18.2773 6.56728 18.1355C6.22828 17.5592 5.92935 16.9644 5.64274 16.3512C5.29141 15.6115 4.90003 14.7425 4.57028 13.9967C4.45933 13.7471 4.35763 13.4913 4.2621 13.2416C4.2621 13.2293 4.25902 13.2139 4.25902 13.1985C4.38229 13.5067 4.50864 13.8118 4.63499 14.1169C4.74902 14.3634 4.89078 14.5976 4.94317 14.724C5.17739 15.2171 5.44242 15.8427 5.73827 16.4559C5.99098 16.9398 6.2591 17.5716 6.61658 18.1787C6.68438 18.3019 6.783 18.4098 6.79533 18.4006C6.87545 18.5423 6.95558 18.6748 7.03879 18.795C7.10659 18.8967 7.24835 19.0909 7.3747 19.2265C7.50414 19.3682 7.64282 19.4884 7.79075 19.5778C7.93867 19.6641 8.09893 19.7288 8.28075 19.7226C8.65365 19.7072 8.99881 19.4792 9.29158 19.097C9.16522 19.2511 9.02038 19.3836 8.86321 19.4823C9.01422 19.3713 9.14057 19.2357 9.24535 19.0909L9.28541 19.0354L9.3224 18.9768L9.39328 18.8628L9.42718 18.8043L9.45799 18.7488C9.47648 18.718 9.49189 18.6872 9.50422 18.6563C9.62749 18.4098 9.73535 18.1448 9.85863 17.8181C10.062 17.2973 10.1267 16.8874 10.2469 16.496C10.6075 15.1832 10.9095 13.8672 11.1006 12.8071C11.0975 12.9458 11.0328 13.2077 11.0143 13.3403Z" fill="url(#paint12_linear)"/>
<path d="M21.4986 5.41703C21.5109 5.37389 21.5232 5.33382 21.5386 5.2876C21.4893 5.40162 21.4893 5.41395 21.4986 5.41703Z" fill="url(#paint13_linear)"/>
<path d="M0.486921 0.818359C0.483839 0.818359 0.477676 0.824523 0.474594 0.824523C0.50233 0.907731 0.526984 0.984776 0.548557 1.05566C0.514657 0.932385 0.486921 0.818359 0.486921 0.818359Z" fill="url(#paint14_linear)"/>
<path d="M0.755034 1.17041C0.751953 1.17966 0.748871 1.18274 0.748871 1.1889C0.758116 1.20739 0.767362 1.22588 0.776607 1.24746C0.767362 1.2228 0.761198 1.19506 0.755034 1.17041Z" fill="url(#paint15_linear)"/>
<path d="M0.317424 0.859004C0.283525 0.726487 0.218807 0.455289 0.191071 0.310445C0.135599 0.171764 0.135599 0.322772 0.107862 0.328935C0.0924535 0.254972 0.0801267 0.181009 0.0677995 0.125537C0.0554724 0.066983 0.0462267 0.0238378 0.0400631 0.0238378C0.027736 0.00226524 0.0184908 -0.00389826 0.0123272 0.00226533C0.00616363 0.00842892 0 0.0238379 0 0.0639012C0 0.140946 0.0123271 0.258054 0.0369814 0.396735C0.178744 0.689505 0.363651 1.17951 0.474596 1.40756C0.588622 1.63562 0.616358 1.6048 0.474596 0.822022C0.425287 0.855922 0.400633 0.969948 0.317424 0.859004Z" fill="url(#paint16_linear)"/>
<path d="M0.55471 1.08099C0.671818 1.43539 0.758108 1.64187 0.862889 1.84219C0.798172 1.61414 0.736536 1.38608 0.6749 1.15495C0.625592 1.09331 0.567038 1.00086 0.55471 1.08099Z" fill="url(#paint17_linear)"/>
<path d="M21.4986 5.41686C21.4893 5.41377 21.4893 5.40145 21.5386 5.28742C21.5232 5.33365 21.5109 5.37679 21.4986 5.41686C21.5047 5.41994 21.5201 5.41686 21.5078 5.47541C21.6311 5.02239 21.7759 4.49232 21.9239 3.98074C21.93 3.90986 21.9331 3.84206 21.9362 3.77734C21.5695 5.04396 21.1781 6.30133 20.9254 7.35222C21.1534 6.628 21.2859 6.1195 21.4986 5.41686Z" fill="url(#paint18_linear)"/>
<path d="M21.8807 3.65678C21.893 3.61363 21.9054 3.57049 21.9177 3.52734C21.8714 3.64137 21.8714 3.6537 21.8807 3.65678Z" fill="url(#paint19_linear)"/>
<path d="M12.5275 12.3322C12.4997 12.2459 12.4689 12.1596 12.4412 12.0733L12.4289 12.0425L12.4227 12.0271L12.4196 12.0178L12.4073 11.987L12.3826 11.9285C12.3487 11.8514 12.3148 11.7805 12.284 11.7158C12.3117 11.7898 12.3395 11.8699 12.3703 11.9531L12.3919 12.0148L12.4073 12.061L12.4289 12.1288C12.4566 12.2182 12.4812 12.3106 12.509 12.4C12.6138 12.7636 12.7155 13.1242 12.8141 13.4755C13.0113 14.1782 13.1993 14.8377 13.3811 15.3986C13.1993 14.7483 13.0329 14.095 12.8634 13.4385C12.7524 13.0441 12.6415 12.6804 12.5275 12.3322Z" fill="url(#paint20_linear)"/>
<path d="M11.9727 11.4854C11.945 11.4977 11.9265 11.5286 11.9111 11.5532C11.8957 11.581 11.8834 11.6087 11.8741 11.6395C11.8341 11.7535 11.8063 11.8645 11.7848 11.9693C11.7848 11.9939 11.7848 12.0155 11.7878 12.0371C11.831 11.9292 11.8526 11.8429 11.8865 11.7227C11.8957 11.695 11.9049 11.6642 11.9173 11.6303C11.9296 11.5994 11.945 11.5655 11.9697 11.544C11.9974 11.5255 12.019 11.5409 12.0375 11.5471C12.056 11.5563 12.0683 11.5686 12.0837 11.584C12.0714 11.5594 12.056 11.5378 12.0375 11.5162C12.0251 11.5008 12.0036 11.4762 11.9727 11.4854Z" fill="url(#paint21_linear)"/>
<path d="M12.059 11.2907C12.0344 11.2691 12.0005 11.2444 11.9604 11.2691C11.9234 11.2968 11.9019 11.34 11.8864 11.3831C11.8525 11.4694 11.8341 11.5526 11.8186 11.6327C11.8464 11.5619 11.871 11.4879 11.9111 11.4139C11.9296 11.38 11.9604 11.3369 11.9974 11.34C12.0313 11.3461 12.0559 11.3677 12.0744 11.3893C12.1546 11.4756 12.2131 11.5803 12.284 11.7159C12.2501 11.6297 12.2193 11.5495 12.1823 11.4786C12.1453 11.4047 12.1083 11.34 12.059 11.2907Z" fill="url(#paint22_linear)"/>
<path d="M18.3952 11.7405C18.4075 11.6481 18.4229 11.5248 18.4476 11.3584C18.4353 11.3923 18.4229 11.4262 18.4137 11.4601C18.2349 12.0549 18.047 12.6558 17.8497 13.2599C17.7788 13.5095 17.711 13.7499 17.6587 13.9533C17.7973 13.5927 17.936 13.229 18.0654 12.8685C18.2288 12.286 18.3305 11.9378 18.3952 11.7405Z" fill="url(#paint23_linear)"/>
<path d="M18.3952 11.7406C18.2997 12.5357 18.6448 10.967 18.3952 11.7406V11.7406Z" fill="url(#paint24_linear)"/>
<path d="M17.8805 15.7129C17.8682 15.7406 17.8559 15.7714 17.8466 15.7992C17.8158 15.8824 17.785 15.9687 17.7542 16.0519C17.7973 15.9348 17.8374 15.8269 17.8805 15.7129Z" fill="url(#paint25_linear)"/>
<path d="M14.3735 16.4252C14.5337 16.9244 14.7094 17.4237 14.922 17.8828C14.7125 17.4083 14.5368 16.8998 14.3735 16.4128C14.2132 15.9228 14.0653 15.4513 13.9297 15.0229C13.9636 15.1524 13.9852 15.2849 14.0221 15.4143C14.1208 15.664 14.2564 16.0399 14.3735 16.4252Z" fill="url(#paint26_linear)"/>
<path d="M15.8681 19.1153C15.9637 19.0475 16.0438 18.9581 16.1178 18.8687C16.1917 18.7763 16.2595 18.6807 16.3212 18.5852C16.3828 18.4897 16.4444 18.388 16.5061 18.2832C16.5646 18.1784 16.6232 18.0736 16.6786 17.9688C16.8975 17.5497 17.0916 17.1183 17.2796 16.6868C17.6556 15.8208 17.9946 14.9425 18.3428 14.0519C18.5308 13.5002 18.7126 12.9455 18.8945 12.3816C19.0301 11.947 19.1595 11.5125 19.2858 11.078C19.9114 9.01008 20.7004 6.61553 21.3383 4.3874C21.3167 4.31035 21.2798 4.28878 21.212 4.35658C20.4384 6.75113 19.7512 9.17342 18.9099 11.5402C18.9037 11.5587 18.9006 11.5772 18.8945 11.5988C18.6263 12.6435 18.01 14.2769 17.5724 15.5435C17.3597 16.1814 17.1255 16.8101 16.8605 17.4234C16.728 17.7315 16.5862 18.0336 16.429 18.3263L16.3705 18.4342L16.3119 18.5359C16.2718 18.6037 16.2318 18.6715 16.1856 18.7393C16.0962 18.8718 15.9976 19.0074 15.8681 19.1153Z" fill="url(#paint27_linear)"/>
<path d="M12.4474 12.3353C12.4289 12.2798 12.4135 12.2244 12.395 12.1689L12.3672 12.0888L12.3549 12.0487C12.3518 12.0364 12.3487 12.0364 12.3457 12.0302C12.3272 11.9871 12.3087 11.9439 12.2902 11.9069C12.2162 11.7528 12.1515 11.6511 12.0837 11.5864C12.1515 11.7128 12.2039 11.8607 12.2594 12.024L12.2655 12.0456L12.2748 12.0733C12.2871 12.1165 12.2994 12.1596 12.3148 12.2028C12.3395 12.2891 12.3672 12.3754 12.3919 12.4617C12.4412 12.6342 12.4905 12.8037 12.5398 12.9732C12.6384 13.3122 12.734 13.6451 12.8295 13.9748C13.0206 14.6343 13.2116 15.2784 13.4243 15.9256C13.1438 14.9641 12.9004 13.9964 12.6477 13.0287C12.586 12.7852 12.5182 12.5572 12.4474 12.3353Z" fill="url(#paint28_linear)"/>
<path d="M17.6463 16.5355C17.4306 17.0378 17.2087 17.534 16.9622 18.0179C16.9005 18.138 16.8358 18.2582 16.7711 18.3784C16.7372 18.437 16.7033 18.4986 16.6694 18.5572L16.6417 18.6034L16.6078 18.6558C16.5862 18.6928 16.5646 18.7267 16.54 18.7606C16.3551 19.0379 16.1486 19.306 15.8743 19.4416C15.8065 19.4755 15.7295 19.4971 15.6493 19.4971C15.6093 19.494 15.5692 19.494 15.5322 19.4848C15.5137 19.4817 15.4922 19.4786 15.4767 19.4725L15.4213 19.454C15.2764 19.3985 15.1532 19.306 15.0422 19.1951C14.9313 19.0842 14.8327 18.9516 14.7433 18.816C14.657 18.6774 14.5676 18.5202 14.5152 18.4123C14.2749 17.9377 14.093 17.4601 13.9204 16.9916C13.7509 16.5232 13.5969 16.0609 13.4489 15.6079C13.4274 15.5401 13.4027 15.4661 13.3811 15.3983C13.5013 15.8329 13.6277 16.2674 13.7664 16.6989C13.905 17.1303 14.053 17.5618 14.2317 17.987C14.2749 18.0949 14.3211 18.1997 14.3735 18.3075C14.3981 18.3599 14.4228 18.4123 14.4505 18.4678L14.4906 18.5479L14.5399 18.6404C14.6138 18.7791 14.6971 18.9085 14.7833 19.0318C14.8758 19.152 14.9713 19.2629 15.0792 19.3554C15.1901 19.4447 15.3072 19.5187 15.4428 19.5618C15.5106 19.5834 15.5815 19.5896 15.6524 19.5957C15.7233 19.5957 15.7942 19.5834 15.8589 19.5557C16.1147 19.454 16.3181 19.2382 16.4999 18.9979C16.3766 19.1704 16.2379 19.3276 16.0777 19.4416C15.9976 19.5002 15.9144 19.5464 15.8188 19.5772C15.7726 19.5896 15.7233 19.5988 15.6709 19.605C15.6216 19.6019 15.5692 19.6019 15.523 19.5896C15.4737 19.5865 15.4274 19.5649 15.3812 19.5495C15.3381 19.5279 15.2888 19.5125 15.2487 19.4848L15.184 19.4478L15.1223 19.4047C15.0823 19.3769 15.0453 19.343 15.0052 19.3091C14.8542 19.1704 14.7248 18.9979 14.6108 18.8099C14.583 18.7637 14.5522 18.7174 14.5245 18.6681L14.4536 18.5387C14.4166 18.4647 14.3766 18.3908 14.3427 18.3168C14.2718 18.1689 14.204 18.0209 14.1423 17.873C14.016 17.5772 13.902 17.2782 13.7972 16.9793C13.6677 16.6249 13.5476 16.2766 13.4366 15.9284C13.6462 16.6403 13.8681 17.3491 14.1608 18.0548C14.2348 18.2305 14.3149 18.4062 14.4043 18.5849C14.4228 18.6188 14.4628 18.6959 14.4937 18.7513L14.5984 18.927C14.6354 18.9825 14.6755 19.0379 14.7125 19.0934C14.7525 19.1458 14.7926 19.1982 14.8357 19.2475C14.922 19.3399 15.0114 19.4324 15.1131 19.5002C15.2117 19.5711 15.3196 19.6266 15.4367 19.6605C15.5538 19.6882 15.6801 19.7067 15.8003 19.6759C15.9174 19.6481 16.0222 19.5896 16.1239 19.5218C16.2873 19.4047 16.429 19.2475 16.5585 19.0718C16.6232 18.9825 16.6848 18.8931 16.7403 18.8006L16.7834 18.7298C16.7988 18.7051 16.8112 18.6835 16.8204 18.6681L16.879 18.5664C17.033 18.2921 17.1656 18.0148 17.295 17.7374C17.5508 17.1827 17.7758 16.6218 17.9915 16.0609C18.4229 14.9361 18.8082 13.7989 19.1718 12.6586C19.255 12.3998 19.3382 12.144 19.4214 11.8882C19.0516 12.9391 18.6726 13.9838 18.2719 15.0131C18.0654 15.5216 17.859 16.0301 17.6463 16.5355Z" fill="url(#paint29_linear)"/>
<path d="M18.2997 14.221C18.349 14.0793 18.3952 13.9375 18.4414 13.7988C18.4075 13.882 18.3767 13.9683 18.3428 14.0515C18.2812 14.2303 18.2195 14.409 18.161 14.5847C18.2072 14.4614 18.2534 14.3412 18.2997 14.221Z" fill="url(#paint30_linear)"/>
<path d="M15.2518 18.499C15.3042 18.5761 15.3658 18.6469 15.4336 18.7024C15.5014 18.7579 15.5877 18.798 15.6771 18.7856C15.7633 18.7671 15.8311 18.6993 15.8866 18.6377C15.9421 18.573 15.9883 18.5052 16.0315 18.4374C16.053 18.4035 16.0715 18.3696 16.09 18.3388C16.1116 18.2987 16.1332 18.2586 16.1547 18.2217C16.2071 18.12 16.2595 18.0213 16.3057 17.9227C16.2965 17.935 16.2903 17.9505 16.2811 17.9628C16.2349 18.0522 16.1855 18.1415 16.1332 18.2309L16.0777 18.3264L16.0284 18.4066C15.9575 18.5113 15.8804 18.6223 15.7726 18.6993C15.6986 18.7641 15.5908 18.761 15.5106 18.7178C15.4274 18.6747 15.3596 18.6069 15.298 18.5329C15.2364 18.4559 15.1809 18.3727 15.1285 18.2833L15.1038 18.2432L15.0761 18.1939L15.0237 18.0922C14.9898 18.0244 14.9559 17.9566 14.9251 17.8857C14.9806 18.0152 15.0422 18.1384 15.1038 18.2586C15.1501 18.3449 15.1963 18.422 15.2518 18.499Z" fill="url(#paint31_linear)"/>
<path d="M15.1408 17.2694C15.0946 17.1523 15.0114 16.9088 14.9713 16.7855C14.9374 16.7116 14.9066 16.6407 14.8727 16.5698C14.9097 16.6869 14.9467 16.804 14.9837 16.9181C15.0361 17.0352 15.0884 17.1554 15.1408 17.2694Z" fill="url(#paint32_linear)"/>
<defs>
<linearGradient id="paint0_linear" x1="-0.182283" y1="16.4865" x2="23.9867" y2="16.4865" gradientUnits="userSpaceOnUse">
<stop offset="4.47534e-07" stop-color="#43BBED"/>
<stop offset="1" stop-color="#D0709A"/>
</linearGradient>
<linearGradient id="paint1_linear" x1="-0.182247" y1="14.5186" x2="23.9867" y2="14.5186" gradientUnits="userSpaceOnUse">
<stop offset="4.47534e-07" stop-color="#43BBED"/>
<stop offset="1" stop-color="#D0709A"/>
</linearGradient>
<linearGradient id="paint2_linear" x1="-0.182715" y1="13.771" x2="23.9871" y2="13.771" gradientUnits="userSpaceOnUse">
<stop offset="4.47534e-07" stop-color="#43BBED"/>
<stop offset="1" stop-color="#D0709A"/>
</linearGradient>
<linearGradient id="paint3_linear" x1="-0.182241" y1="15.6698" x2="23.9867" y2="15.6698" gradientUnits="userSpaceOnUse">
<stop offset="4.47534e-07" stop-color="#43BBED"/>
<stop offset="1" stop-color="#D0709A"/>
</linearGradient>
<linearGradient id="paint4_linear" x1="-0.182116" y1="15.9228" x2="23.9867" y2="15.9228" gradientUnits="userSpaceOnUse">
<stop offset="4.47534e-07" stop-color="#43BBED"/>
<stop offset="1" stop-color="#D0709A"/>
</linearGradient>
<linearGradient id="paint5_linear" x1="-0.180757" y1="17.6139" x2="23.9857" y2="17.6139" gradientUnits="userSpaceOnUse">
<stop offset="4.47534e-07" stop-color="#43BBED"/>
<stop offset="1" stop-color="#D0709A"/>
</linearGradient>
<linearGradient id="paint6_linear" x1="-0.182341" y1="16.6776" x2="23.9867" y2="16.6776" gradientUnits="userSpaceOnUse">
<stop offset="4.47534e-07" stop-color="#43BBED"/>
<stop offset="1" stop-color="#D0709A"/>
</linearGradient>
<linearGradient id="paint7_linear" x1="-0.182201" y1="16.2862" x2="23.9867" y2="16.2862" gradientUnits="userSpaceOnUse">
<stop offset="4.47534e-07" stop-color="#43BBED"/>
<stop offset="1" stop-color="#D0709A"/>
</linearGradient>
<linearGradient id="paint8_linear" x1="-0.182212" y1="14.8551" x2="23.9867" y2="14.8551" gradientUnits="userSpaceOnUse">
<stop offset="4.47534e-07" stop-color="#43BBED"/>
<stop offset="1" stop-color="#D0709A"/>
</linearGradient>
<linearGradient id="paint9_linear" x1="-0.182203" y1="6.1809" x2="23.9867" y2="6.1809" gradientUnits="userSpaceOnUse">
<stop offset="4.47534e-07" stop-color="#43BBED"/>
<stop offset="1" stop-color="#D0709A"/>
</linearGradient>
<linearGradient id="paint10_linear" x1="-0.137255" y1="11.343" x2="23.7411" y2="11.343" gradientUnits="userSpaceOnUse">
<stop offset="4.47534e-07" stop-color="#43BBED"/>
<stop offset="1" stop-color="#D0709A"/>
</linearGradient>
<linearGradient id="paint11_linear" x1="-0.1822" y1="4.95521" x2="23.9867" y2="4.95521" gradientUnits="userSpaceOnUse">
<stop offset="4.47534e-07" stop-color="#43BBED"/>
<stop offset="1" stop-color="#D0709A"/>
</linearGradient>
<linearGradient id="paint12_linear" x1="-0.182203" y1="10.7955" x2="23.9867" y2="10.7955" gradientUnits="userSpaceOnUse">
<stop offset="4.47534e-07" stop-color="#43BBED"/>
<stop offset="1" stop-color="#D0709A"/>
</linearGradient>
<linearGradient id="paint13_linear" x1="-0.181421" y1="5.35398" x2="23.9866" y2="5.35398" gradientUnits="userSpaceOnUse">
<stop offset="4.47534e-07" stop-color="#43BBED"/>
<stop offset="1" stop-color="#D0709A"/>
</linearGradient>
<linearGradient id="paint14_linear" x1="-0.182185" y1="0.937208" x2="23.9866" y2="0.937208" gradientUnits="userSpaceOnUse">
<stop offset="4.47534e-07" stop-color="#43BBED"/>
<stop offset="1" stop-color="#D0709A"/>
</linearGradient>
<linearGradient id="paint15_linear" x1="-0.182205" y1="1.20878" x2="23.9871" y2="1.20878" gradientUnits="userSpaceOnUse">
<stop offset="4.47534e-07" stop-color="#43BBED"/>
<stop offset="1" stop-color="#D0709A"/>
</linearGradient>
<linearGradient id="paint16_linear" x1="-0.182186" y1="0.767129" x2="23.9867" y2="0.767129" gradientUnits="userSpaceOnUse">
<stop offset="4.47534e-07" stop-color="#43BBED"/>
<stop offset="1" stop-color="#D0709A"/>
</linearGradient>
<linearGradient id="paint17_linear" x1="-0.182197" y1="1.44658" x2="23.9867" y2="1.44658" gradientUnits="userSpaceOnUse">
<stop offset="4.47534e-07" stop-color="#43BBED"/>
<stop offset="1" stop-color="#D0709A"/>
</linearGradient>
<linearGradient id="paint18_linear" x1="-0.182172" y1="5.56905" x2="23.9867" y2="5.56905" gradientUnits="userSpaceOnUse">
<stop offset="4.47534e-07" stop-color="#43BBED"/>
<stop offset="1" stop-color="#D0709A"/>
</linearGradient>
<linearGradient id="paint19_linear" x1="-0.186303" y1="3.59324" x2="23.9871" y2="3.59324" gradientUnits="userSpaceOnUse">
<stop offset="4.47534e-07" stop-color="#43BBED"/>
<stop offset="1" stop-color="#D0709A"/>
</linearGradient>
<linearGradient id="paint20_linear" x1="-0.182333" y1="13.5552" x2="23.9868" y2="13.5552" gradientUnits="userSpaceOnUse">
<stop offset="4.47534e-07" stop-color="#43BBED"/>
<stop offset="1" stop-color="#D0709A"/>
</linearGradient>
<linearGradient id="paint21_linear" x1="-0.182466" y1="11.7586" x2="23.987" y2="11.7586" gradientUnits="userSpaceOnUse">
<stop offset="4.47534e-07" stop-color="#43BBED"/>
<stop offset="1" stop-color="#D0709A"/>
</linearGradient>
<linearGradient id="paint22_linear" x1="-0.182078" y1="11.4863" x2="23.9866" y2="11.4863" gradientUnits="userSpaceOnUse">
<stop offset="4.47534e-07" stop-color="#43BBED"/>
<stop offset="1" stop-color="#D0709A"/>
</linearGradient>
<linearGradient id="paint23_linear" x1="-0.182174" y1="12.6546" x2="23.9867" y2="12.6546" gradientUnits="userSpaceOnUse">
<stop offset="4.47534e-07" stop-color="#43BBED"/>
<stop offset="1" stop-color="#D0709A"/>
</linearGradient>
<linearGradient id="paint24_linear" x1="-0.182993" y1="11.7456" x2="23.9869" y2="11.7456" gradientUnits="userSpaceOnUse">
<stop offset="4.47534e-07" stop-color="#43BBED"/>
<stop offset="1" stop-color="#D0709A"/>
</linearGradient>
<linearGradient id="paint25_linear" x1="-0.181913" y1="15.8815" x2="23.9866" y2="15.8815" gradientUnits="userSpaceOnUse">
<stop offset="4.47534e-07" stop-color="#43BBED"/>
<stop offset="1" stop-color="#D0709A"/>
</linearGradient>
<linearGradient id="paint26_linear" x1="-0.182337" y1="16.4507" x2="23.9868" y2="16.4507" gradientUnits="userSpaceOnUse">
<stop offset="4.47534e-07" stop-color="#43BBED"/>
<stop offset="1" stop-color="#D0709A"/>
</linearGradient>
<linearGradient id="paint27_linear" x1="-0.182192" y1="11.7159" x2="23.9867" y2="11.7159" gradientUnits="userSpaceOnUse">
<stop offset="4.47534e-07" stop-color="#43BBED"/>
<stop offset="1" stop-color="#D0709A"/>
</linearGradient>
<linearGradient id="paint28_linear" x1="-0.182065" y1="13.7549" x2="23.9866" y2="13.7549" gradientUnits="userSpaceOnUse">
<stop offset="4.47534e-07" stop-color="#43BBED"/>
<stop offset="1" stop-color="#D0709A"/>
</linearGradient>
<linearGradient id="paint29_linear" x1="-0.182154" y1="15.7835" x2="23.9867" y2="15.7835" gradientUnits="userSpaceOnUse">
<stop offset="4.47534e-07" stop-color="#43BBED"/>
<stop offset="1" stop-color="#D0709A"/>
</linearGradient>
<linearGradient id="paint30_linear" x1="-0.182272" y1="14.1912" x2="23.9867" y2="14.1912" gradientUnits="userSpaceOnUse">
<stop offset="4.47534e-07" stop-color="#43BBED"/>
<stop offset="1" stop-color="#D0709A"/>
</linearGradient>
<linearGradient id="paint31_linear" x1="-0.182203" y1="18.3334" x2="23.9867" y2="18.3334" gradientUnits="userSpaceOnUse">
<stop offset="4.47534e-07" stop-color="#43BBED"/>
<stop offset="1" stop-color="#D0709A"/>
</linearGradient>
<linearGradient id="paint32_linear" x1="-0.182279" y1="16.919" x2="23.9868" y2="16.919" gradientUnits="userSpaceOnUse">
<stop offset="4.47534e-07" stop-color="#43BBED"/>
<stop offset="1" stop-color="#D0709A"/>
</linearGradient>
</defs>
</svg>
