<svg width="21" height="25" viewBox="0 0 21 25" fill="none" xmlns="http://www.w3.org/2000/svg">
<path fill-rule="evenodd" clip-rule="evenodd" d="M10.4999 0H10.5411C16.3302 0.0227494 21.0226 4.74596 20.9998 10.5276V10.6424C20.9217 14.7741 18.4378 18.2028 16.3682 20.351C15.7792 20.9652 15.1522 21.5545 14.5057 22.1049C14.1185 22.4353 13.5371 22.3898 13.2063 22.003C12.8754 21.6152 12.9221 21.0346 13.3093 20.7041C13.9081 20.1939 14.4905 19.6458 15.0383 19.0749C16.8801 17.1639 19.0886 14.1426 19.1558 10.6088C19.1743 5.75452 15.3073 1.86004 10.5335 1.84054H10.4999C5.74241 1.84054 1.86243 5.69711 1.84399 10.4517C1.92535 12.8003 2.71935 15.033 4.14139 16.9061C5.80099 19.116 8.31858 21.456 10.7114 23.0138C11.1388 23.2911 11.2592 23.8609 10.9804 24.2877C10.8047 24.5586 10.5086 24.7059 10.207 24.7059C10.0346 24.7059 9.86103 24.6582 9.70483 24.5564C7.14276 22.8892 4.44619 20.3824 2.66837 18.0154C1.01854 15.8412 0.0954538 13.2467 0 10.5157C0.0227787 4.67663 4.7293 0 10.4999 0ZM8.34463 10.6409C8.34463 11.8249 9.31002 12.7901 10.4967 12.7901C11.6833 12.7901 12.6487 11.8249 12.6487 10.6409C12.6487 9.45572 11.6833 8.4905 10.4967 8.4905C9.98795 8.4905 9.57468 8.07884 9.57468 7.57077C9.57468 7.06162 9.98795 6.64996 10.4967 6.64996C12.6997 6.64996 14.4927 8.43958 14.4927 10.6409C14.4927 12.8411 12.6997 14.6307 10.4967 14.6307C8.29365 14.6307 6.50064 12.8411 6.50064 10.6409C6.50064 10.1317 6.91391 9.72005 7.42263 9.72005C7.93136 9.72005 8.34463 10.1317 8.34463 10.6409Z" fill="#0043A0"/>
</svg>
